<?xml version="1.0" standalone="no"?>
<!DOCTYPE svg PUBLIC "-//W3C//DTD SVG 1.1//EN" "http://www.w3.org/Graphics/SVG/1.1/DTD/svg11.dtd" >
<svg xmlns="http://www.w3.org/2000/svg" xmlns:xlink="http://www.w3.org/1999/xlink" version="1.1">
<metadata>
Created by FontForge 20190801 at Wed Jan  8 08:22:53 2014
 By root
Copyright LDEJRuff 2012
</metadata>
<defs>
<font id="Arcadepix-Plus" horiz-adv-x="544" >
  <font-face 
    font-family="Arcadepix Plus"
    font-weight="400"
    font-stretch="normal"
    units-per-em="1024"
    panose-1="0 0 4 0 0 0 0 0 0 0"
    ascent="819"
    descent="-205"
    x-height="384"
    cap-height="448"
    bbox="0 -128 640 640"
    underline-thickness="51"
    underline-position="26"
    unicode-range="U+0020-30FC"
  />
<missing-glyph horiz-adv-x="224" 
d="M224 63v71h-72v-71h72zM295 146v72h-143v-72h143zM224 229v72h-72v-72h72zM295 313v70h-71q-30 0 -51 -20q-21 -21 -21 -50h143zM0 0v448h448v-448h-448z" />
    <glyph glyph-name=".notdef" horiz-adv-x="224" 
d="M224 63v71h-72v-71h72zM295 146v72h-143v-72h143zM224 229v72h-72v-72h72zM295 313v70h-71q-30 0 -51 -20q-21 -21 -21 -50h143zM0 0v448h448v-448h-448z" />
    <glyph glyph-name="glyph1" horiz-adv-x="32" 
 />
    <glyph glyph-name="glyph2" horiz-adv-x="192" 
 />
    <glyph glyph-name="space" unicode=" " horiz-adv-x="192" 
 />
    <glyph glyph-name="exclam" unicode="!" horiz-adv-x="352" 
d="M0 0v64h64v-64h-64zM64 128v256h64v64h128v-192h-64v-64h-64v-64h-64z" />
    <glyph glyph-name="quotedbl" unicode="&#x22;" horiz-adv-x="416" 
d="M0 256v64h64v-64h-64zM192 256v64h64v-64h-64zM64 320v64h-64v64h128v-128h-64zM256 320v64h-64v64h128v-128h-64z" />
    <glyph glyph-name="numbersign" unicode="#" horiz-adv-x="416" 
d="M192 192v64h-64v-64h64zM64 64v64h-64v64h64v64h-64v64h64v64h64v-64h64v64h64v-64h64v-64h-64v-64h64v-64h-64v-64h-64v64h-64v-64h-64z" />
    <glyph glyph-name="dollar" unicode="$" horiz-adv-x="480" 
d="M192 0v64h-192v64h256v64h-192v64h256v-64h64v-64h-64v-64h-64v-64h-64zM0 256v64h64v-64h-64zM64 320v64h128v64h64v-64h64v-64h-256z" />
    <glyph glyph-name="percent" unicode="%" 
d="M0 0v64h64v-64h-64zM320 0v64h64v-64h-64zM64 64v64h64v-64h-64zM256 64v64h64v-64h-64zM384 64v64h64v-64h-64zM128 128v64h64v-64h-64zM320 128v64h64v-64h-64zM192 192v64h64v-64h-64zM64 256v64h64v-64h-64zM256 256v64h64v-64h-64zM0 320v64h64v-64h-64zM128 320v64
h64v-64h-64zM320 320v64h64v-64h-64zM64 384v64h64v-64h-64zM384 384v64h64v-64h-64z" />
    <glyph glyph-name="ampersand" unicode="&#x26;" horiz-adv-x="480" 
d="M320 192v64h64v-64h-64zM256 320v64h64v-64h-64zM64 0v64h-64v128h64v64h64v64h-64v64h64v64h128v-64h-64v-64h64v-128h64v-64h64v-128h-64v64h-64v64h-64v64h-64v-128h128v-64h-192z" />
    <glyph glyph-name="quotesingle" unicode="'" horiz-adv-x="224" 
d="M0 256v64h64v-64h-64zM64 320v64h-64v64h128v-128h-64z" />
    <glyph glyph-name="parenleft" unicode="(" horiz-adv-x="352" 
d="M64 0v64h-64v320h64v64h192v-64h-128v-320h128v-64h-192z" />
    <glyph glyph-name="parenright" unicode=")" horiz-adv-x="352" 
d="M0 0v64h128v320h-128v64h192v-64h64v-320h-64v-64h-192z" />
    <glyph glyph-name="asterisk" unicode="*" horiz-adv-x="416" 
d="M128 128v64h-128v64h64v64h-64v64h128v64h64v-64h128v-64h-64v-64h64v-64h-128v-64h-64z" />
    <glyph glyph-name="plus" unicode="+" horiz-adv-x="480" 
d="M128 0v128h-128v128h128v128h128v-128h128v-128h-128v-128h-128z" />
    <glyph glyph-name="comma" unicode="," horiz-adv-x="288" 
d="M0 -64v64h64v128h128v-128h-64v-64h-128z" />
    <glyph glyph-name="hyphen" unicode="-" horiz-adv-x="480" 
d="M0 128v128h384v-128h-384z" />
    <glyph glyph-name="period" unicode="." horiz-adv-x="224" 
d="M0 0v128h128v-128h-128z" />
    <glyph glyph-name="slash" unicode="/" 
d="M0 0v64h64v-64h-64zM64 64v64h64v-64h-64zM128 128v64h64v-64h-64zM192 192v64h64v-64h-64zM256 256v64h64v-64h-64zM320 320v64h64v-64h-64zM384 384v64h64v-64h-64z" />
    <glyph glyph-name="zero" unicode="0" 
d="M128 0v64h-64v64h-64v192h64v64h64v-256h64v-64h128v-64h-192zM320 64v256h-64v64h-128v64h192v-64h64v-64h64v-192h-64v-64h-64z" />
    <glyph glyph-name="one" unicode="1" horiz-adv-x="480" 
d="M0 0v64h128v256h-64v64h64v64h128v-384h128v-64h-384z" />
    <glyph glyph-name="two" unicode="2" 
d="M0 0v128h64v64h64v64h128v64h64v64h-192v-64h-128v64h64v64h320v-64h64v-128h-64v-64h-64v-64h-128v-64h256v-64h-448z" />
    <glyph glyph-name="three" unicode="3" 
d="M64 0v64h-64v64h128v-64h192v128h-192v64h64v64h64v64h-192v64h384v-64h-64v-64h-64v-64h64v-64h64v-128h-64v-64h-320z" />
    <glyph glyph-name="four" unicode="4" 
d="M256 192v128h-64v-64h-64v-64h128zM256 0v128h-256v128h64v64h64v64h64v64h192v-256h64v-64h-64v-128h-128z" />
    <glyph glyph-name="five" unicode="5" 
d="M64 0v64h-64v64h128v-64h192v128h-320v256h448v-64h-320v-64h256v-64h64v-192h-64v-64h-320z" />
    <glyph glyph-name="six" unicode="6" 
d="M320 64v128h-192v-128h192zM64 0v64h-64v256h64v64h64v64h320v-64h-256v-64h-64v-64h256v-64h64v-128h-64v-64h-320z" />
    <glyph glyph-name="seven" unicode="7" 
d="M128 0v192h64v64h64v64h64v64h-192v-64h-128v128h448v-128h-64v-64h-64v-64h-64v-192h-128z" />
    <glyph glyph-name="eight" unicode="8" 
d="M0 64v128h64v-128h-64zM64 0v64h256v128h128v-128h-64v-64h-320zM320 256v128h64v-128h-64zM64 192v64h-64v128h64v64h256v-64h-192v-64h64v-64h128v-64h-256z" />
    <glyph glyph-name="nine" unicode="9" 
d="M320 256v128h-192v-128h192zM64 0v64h192v64h64v64h-256v64h-64v128h64v64h320v-64h64v-256h-64v-64h-64v-64h-256z" />
    <glyph glyph-name="colon" unicode=":" horiz-adv-x="224" 
d="M0 0v128h128v-128h-128zM0 192v128h128v-128h-128z" />
    <glyph glyph-name="semicolon" unicode=";" horiz-adv-x="288" 
d="M0 -64v64h64v128h128v-128h-64v-64h-128zM64 192v128h128v-128h-128z" />
    <glyph glyph-name="less" unicode="&#x3c;" horiz-adv-x="416" 
d="M192 0v64h-64v64h-64v64h-64v128h64v64h64v64h64v64h128v-64h-64v-64h-64v-64h-64v-128h64v-64h64v-64h64v-64h-128z" />
    <glyph glyph-name="equal" unicode="=" horiz-adv-x="480" 
d="M0 64v128h384v-128h-384zM0 256v128h384v-128h-384z" />
    <glyph glyph-name="greater" unicode="&#x3e;" horiz-adv-x="416" 
d="M0 0v64h64v64h64v64h64v128h-64v64h-64v64h-64v64h128v-64h64v-64h64v-64h64v-128h-64v-64h-64v-64h-64v-64h-128z" />
    <glyph glyph-name="question" unicode="?" 
d="M128 0v64h128v-64h-128zM128 128v64h64v64h128v128h-192v-128h-128v128h64v64h320v-64h64v-128h-64v-64h-128v-64h-128z" />
    <glyph glyph-name="at" unicode="@" 
d="M128 -64v64h128v-64h-128zM64 0v64h64v-64h-64zM384 0v64h64v-64h-64zM128 128v128h64v-128h-64zM192 64v64h128v128h64v-192h-192zM0 64v256h64v-256h-64zM192 256v64h128v-64h-128zM448 64v256h64v-256h-64zM64 320v64h64v-64h-64zM384 320v64h64v-64h-64zM128 384v64
h256v-64h-256z" />
    <glyph glyph-name="A" unicode="A" 
d="M320 192v128h-64v64h-64v-64h-64v-128h192zM0 0v320h64v64h64v64h192v-64h64v-64h64v-320h-128v128h-192v-128h-128z" />
    <glyph glyph-name="B" unicode="B" 
d="M320 64v128h-192v-128h192zM320 256v128h-192v-128h192zM0 0v448h384v-64h64v-128h-64v-64h64v-128h-64v-64h-384z" />
    <glyph glyph-name="C" unicode="C" 
d="M128 0v64h-64v64h-64v192h64v64h64v64h256v-64h64v-64h-128v64h-128v-64h-64v-192h64v-64h128v64h128v-64h-64v-64h-256z" />
    <glyph glyph-name="D" unicode="D" 
d="M256 64v64h64v192h-64v64h-128v-320h128zM0 0v448h320v-64h64v-64h64v-192h-64v-64h-64v-64h-320z" />
    <glyph glyph-name="E" unicode="E" 
d="M0 0v448h448v-64h-320v-128h256v-64h-256v-128h320v-64h-448z" />
    <glyph glyph-name="F" unicode="F" 
d="M0 0v448h448v-64h-320v-128h256v-64h-256v-192h-128z" />
    <glyph glyph-name="G" unicode="G" 
d="M128 0v64h-64v64h-64v192h64v64h64v64h320v-64h-256v-64h-64v-192h64v-64h128v128h-64v64h192v-256h-320z" />
    <glyph glyph-name="H" unicode="H" 
d="M0 0v448h128v-192h192v192h128v-448h-128v192h-192v-192h-128z" />
    <glyph glyph-name="I" unicode="I" 
d="M0 0v64h128v320h-128v64h448v-64h-128v-320h128v-64h-448z" />
    <glyph glyph-name="J" unicode="J" 
d="M64 0v64h-64v64h128v-64h192v384h128v-384h-64v-64h-320z" />
    <glyph glyph-name="K" unicode="K" 
d="M0 0v448h128v-192h64v64h64v64h64v64h128v-64h-64v-64h-64v-64h-64v-64h64v-64h64v-64h64v-64h-128v64h-64v64h-64v64h-64v-192h-128z" />
    <glyph glyph-name="L" unicode="L" 
d="M0 0v448h192v-384h256v-64h-448z" />
    <glyph glyph-name="M" unicode="M" 
d="M0 0v448h128v-64h64v-64h64v64h64v64h128v-448h-128v192h-64v-64h-64v64h-64v-192h-128z" />
    <glyph glyph-name="N" unicode="N" 
d="M0 0v448h128v-64h64v-64h64v-64h64v192h128v-448h-128v64h-64v64h-64v64h-64v-192h-128z" />
    <glyph glyph-name="O" unicode="O" 
d="M320 64v320h-192v-320h192zM64 0v64h-64v320h64v64h320v-64h64v-320h-64v-64h-320z" />
    <glyph glyph-name="P" unicode="P" 
d="M320 192v192h-192v-192h192zM0 0v448h384v-64h64v-192h-64v-64h-256v-128h-128z" />
    <glyph glyph-name="Q" unicode="Q" 
d="M384 0v64h64v-64h-64zM256 64v64h-64v64h128v192h-192v-320h128zM64 0v64h-64v320h64v64h320v-64h64v-256h-64v-64h-64v-64h-256z" />
    <glyph glyph-name="R" unicode="R" 
d="M256 192v64h64v128h-192v-192h128zM0 0v448h384v-64h64v-192h-128v-64h64v-64h64v-64h-192v64h-64v64h-64v-128h-128z" />
    <glyph glyph-name="S" unicode="S" 
d="M64 0v64h-64v64h128v-64h192v128h-256v64h-64v128h64v64h256v-64h64v-64h-128v64h-128v-128h256v-64h64v-128h-64v-64h-320z" />
    <glyph glyph-name="T" unicode="T" 
d="M128 0v384h-128v64h448v-64h-128v-384h-192z" />
    <glyph glyph-name="U" unicode="U" 
d="M64 0v64h-64v384h128v-384h192v384h128v-384h-64v-64h-320z" />
    <glyph glyph-name="V" unicode="V" 
d="M192 0v64h-64v64h-64v64h-64v256h128v-256h64v-64h64v64h64v256h128v-256h-64v-64h-64v-64h-64v-64h-64z" />
    <glyph glyph-name="W" unicode="W" 
d="M64 0v128h-64v320h128v-192h64v64h64v-64h64v192h128v-320h-64v-128h-64v64h-64v64h-64v-64h-64v-64h-64z" />
    <glyph glyph-name="X" unicode="X" 
d="M0 0v128h64v64h64v64h-64v64h-64v128h128v-64h64v-64h64v64h64v64h128v-128h-64v-64h-64v-64h64v-64h64v-128h-128v64h-64v64h-64v-64h-64v-64h-128z" />
    <glyph glyph-name="Y" unicode="Y" horiz-adv-x="480" 
d="M128 0v192h-64v64h-64v192h128v-192h128v192h128v-192h-64v-64h-64v-192h-128z" />
    <glyph glyph-name="Z" unicode="Z" 
d="M0 0v128h64v64h64v64h64v64h64v64h-256v64h448v-128h-64v-64h-64v-64h-64v-64h-64v-64h256v-64h-448z" />
    <glyph glyph-name="bracketleft" unicode="[" horiz-adv-x="352" 
d="M0 0v448h256v-64h-128v-320h128v-64h-256z" />
    <glyph glyph-name="backslash" unicode="\" 
d="M384 0v64h64v-64h-64zM320 64v64h64v-64h-64zM256 128v64h64v-64h-64zM192 192v64h64v-64h-64zM128 256v64h64v-64h-64zM64 320v64h64v-64h-64zM0 384v64h64v-64h-64z" />
    <glyph glyph-name="bracketright" unicode="]" horiz-adv-x="352" 
d="M0 0v64h128v320h-128v64h256v-448h-256z" />
    <glyph glyph-name="asciicircum" unicode="^" 
d="M0 192v64h64v64h64v64h64v64h64v-64h64v-64h64v-64h64v-64h-128v64h-64v64h-64v-64h-64v-64h-128z" />
    <glyph glyph-name="underscore" unicode="_" 
d="M0 0v64h448v-64h-448z" />
    <glyph glyph-name="grave" unicode="`" horiz-adv-x="288" 
d="M64 512v64h-64v64h128v-64h64v-64h-128z" />
    <glyph glyph-name="a" unicode="a" horiz-adv-x="480" 
d="M256 64v128h-128v-128h128zM64 0v64h-64v128h64v64h192v64h-192v64h256v-64h64v-256h-64v-64h-256z" />
    <glyph glyph-name="b" unicode="b" horiz-adv-x="480" 
d="M256 64v256h-128v-256h128zM0 0v448h128v-64h192v-64h64v-256h-64v-64h-320z" />
    <glyph glyph-name="c" unicode="c" horiz-adv-x="480" 
d="M64 0v64h-64v256h64v64h256v-64h64v-64h-128v64h-128v-256h128v64h128v-64h-64v-64h-256z" />
    <glyph glyph-name="d" unicode="d" horiz-adv-x="480" 
d="M256 64v256h-128v-256h128zM64 0v64h-64v256h64v64h192v64h128v-448h-320z" />
    <glyph glyph-name="e" unicode="e" horiz-adv-x="480" 
d="M256 192v128h-128v-128h128zM64 0v64h-64v256h64v64h256v-64h64v-192h-256v-64h192v-64h-256z" />
    <glyph glyph-name="f" unicode="f" horiz-adv-x="416" 
d="M64 0v256h-64v64h64v64h64v64h192v-64h-128v-64h64v-64h-64v-256h-128z" />
    <glyph glyph-name="g" unicode="g" horiz-adv-x="480" 
d="M256 64v256h-128v-256h128zM64 -128v64h192v64h-192v64h-64v256h64v64h320v-448h-64v-64h-256z" />
    <glyph glyph-name="h" unicode="h" horiz-adv-x="480" 
d="M0 0v448h128v-64h192v-64h64v-320h-128v320h-64v-64h-64v-256h-128z" />
    <glyph glyph-name="i" unicode="i" horiz-adv-x="288" 
d="M64 0v256h-64v64h192v-320h-128zM64 384v64h128v-64h-128z" />
    <glyph glyph-name="j" unicode="j" horiz-adv-x="352" 
d="M0 -128v64h128v320h-64v64h192v-384h-64v-64h-192zM128 384v64h128v-64h-128z" />
    <glyph glyph-name="k" unicode="k" horiz-adv-x="480" 
d="M0 0v448h128v-256h64v64h64v128h128v-128h-64v-64h-64v-64h64v-64h64v-64h-128v64h-64v64h-64v-128h-128z" />
    <glyph glyph-name="l" unicode="l" horiz-adv-x="288" 
d="M64 0v384h-64v64h192v-448h-128z" />
    <glyph glyph-name="m" unicode="m" 
d="M0 0v384h192v-64h64v64h128v-64h64v-320h-128v128h-64v-64h-64v64h-64v-128h-128z" />
    <glyph glyph-name="n" unicode="n" horiz-adv-x="480" 
d="M0 0v384h320v-64h64v-320h-128v320h-64v-64h-64v-256h-128z" />
    <glyph glyph-name="o" unicode="o" horiz-adv-x="480" 
d="M256 64v256h-128v-256h128zM64 0v64h-64v256h64v64h256v-64h64v-256h-64v-64h-256z" />
    <glyph glyph-name="p" unicode="p" horiz-adv-x="480" 
d="M256 64v256h-128v-256h128zM0 -128v512h320v-64h64v-256h-64v-64h-192v-128h-128z" />
    <glyph glyph-name="q" unicode="q" horiz-adv-x="480" 
d="M256 64v256h-128v-256h128zM256 -128v128h-192v64h-64v256h64v64h320v-512h-128z" />
    <glyph glyph-name="r" unicode="r" horiz-adv-x="480" 
d="M0 0v384h320v-64h64v-64h-128v64h-128v-320h-128z" />
    <glyph glyph-name="s" unicode="s" horiz-adv-x="480" 
d="M64 0v64h-64v64h128v-64h128v128h-192v64h-64v64h64v64h256v-64h-192v-64h192v-64h64v-128h-64v-64h-256z" />
    <glyph glyph-name="t" unicode="t" horiz-adv-x="480" 
d="M192 0v64h-64v256h-64v64h64v64h128v-64h64v-64h-64v-256h128v-64h-192z" />
    <glyph glyph-name="u" unicode="u" horiz-adv-x="480" 
d="M64 0v64h-64v320h128v-320h64v64h64v256h128v-384h-320z" />
    <glyph glyph-name="v" unicode="v" horiz-adv-x="480" 
d="M128 0v64h-64v64h-64v256h128v-256h128v256h128v-256h-64v-64h-64v-64h-128z" />
    <glyph glyph-name="w" unicode="w" 
d="M128 0v64h-64v64h-64v256h128v-192h64v64h64v-64h64v192h128v-256h-64v-64h-64v-64h-64v64h-64v-64h-64z" />
    <glyph glyph-name="x" unicode="x" horiz-adv-x="480" 
d="M0 0v128h64v64h64v64h-64v64h-64v64h128v-64h128v64h128v-64h-64v-64h-64v-64h64v-64h64v-128h-128v128h-128v-128h-128z" />
    <glyph glyph-name="y" unicode="y" horiz-adv-x="480" 
d="M64 -128v64h192v64h-192v64h-64v320h128v-320h128v320h128v-448h-64v-64h-256z" />
    <glyph glyph-name="z" unicode="z" horiz-adv-x="480" 
d="M0 0v128h64v64h64v64h64v64h-192v64h384v-128h-64v-64h-64v-64h-64v-64h192v-64h-384z" />
    <glyph glyph-name="braceleft" unicode="{" horiz-adv-x="352" 
d="M128 0v64h-64v128h-64v64h64v128h64v64h128v-64h-64v-128h-64v-64h64v-128h64v-64h-128z" />
    <glyph glyph-name="bar" unicode="|" horiz-adv-x="224" 
d="M0 0v448h128v-448h-128z" />
    <glyph glyph-name="braceright" unicode="}" horiz-adv-x="352" 
d="M0 0v64h64v128h64v64h-64v128h-64v64h128v-64h64v-128h64v-64h-64v-128h-64v-64h-128z" />
    <glyph glyph-name="asciitilde" unicode="~" 
d="M0 128v64h64v64h64v64h128v-64h64v64h128v-64h-64v-64h-64v-64h-128v64h-64v-64h-128z" />
    <glyph glyph-name="exclamdown" unicode="&#xa1;" horiz-adv-x="352" 
d="M128 0v64h-64v256h64v-64h64v-64h64v-192h-128zM0 384v64h64v-64h-64z" />
    <glyph glyph-name="cent" unicode="&#xa2;" horiz-adv-x="480" 
d="M192 0v64h-64v64h-64v128h64v64h128v64h64v-64h64v-64h-192v-128h192v-64h-128v-64h-64z" />
    <glyph glyph-name="yen" unicode="&#xa5;" horiz-adv-x="480" 
d="M128 0v64h-128v64h128v64h-128v64h64v64h-64v128h128v-128h128v128h128v-128h-64v-64h64v-64h-128v-64h128v-64h-128v-64h-128z" />
    <glyph glyph-name="copyright" unicode="&#xa9;" horiz-adv-x="608" 
d="M128 0v64h256v-64h-256zM64 64v64h64v-64h-64zM384 64v64h64v-64h-64zM192 128v64h128v-64h-128zM320 192v64h64v-64h-64zM128 192v128h64v-128h-64zM0 128v256h64v-256h-64zM192 320v64h128v-64h-128zM448 128v256h64v-256h-64zM64 384v64h64v-64h-64zM384 384v64h64
v-64h-64zM128 448v64h256v-64h-256z" />
    <glyph glyph-name="registered" unicode="&#xae;" horiz-adv-x="608" 
d="M128 0v64h256v-64h-256zM64 64v64h64v-64h-64zM384 64v64h64v-64h-64zM320 128v64h64v-64h-64zM128 128v192h64v-64h128v-64h-128v-64h-64zM320 256v64h64v-64h-64zM0 128v256h64v-256h-64zM192 320v64h128v-64h-128zM448 128v256h64v-256h-64zM64 384v64h64v-64h-64z
M384 384v64h64v-64h-64zM128 448v64h256v-64h-256z" />
    <glyph glyph-name="questiondown" unicode="&#xbf;" 
d="M64 0v64h-64v128h64v64h128v64h128v-64h-64v-64h-128v-128h192v128h128v-128h-64v-64h-320zM192 384v64h128v-64h-128z" />
    <glyph glyph-name="uni0410" unicode="&#x410;" 
d="M320 192v128h-64v64h-64v-64h-64v-128h192zM0 0v320h64v64h64v64h192v-64h64v-64h64v-320h-128v128h-192v-128h-128z" />
    <glyph glyph-name="uni0411" unicode="&#x411;" 
d="M320 64v128h-192v-128h192zM0 0v448h384v-64h-256v-128h256v-64h64v-128h-64v-64h-384z" />
    <glyph glyph-name="uni0412" unicode="&#x412;" 
d="M320 64v128h-192v-128h192zM320 256v128h-192v-128h192zM0 0v448h384v-64h64v-128h-64v-64h64v-128h-64v-64h-384z" />
    <glyph glyph-name="uni0413" unicode="&#x413;" 
d="M0 0v448h448v-64h-320v-384h-128z" />
    <glyph glyph-name="uni0414" unicode="&#x414;" 
d="M256 64v320h-64v-320h64zM0 -64v128h64v320h64v64h256v-384h64v-128h-128v64h-192v-64h-128z" />
    <glyph glyph-name="uni0415" unicode="&#x415;" 
d="M0 0v448h448v-64h-320v-128h256v-64h-256v-128h320v-64h-448z" />
    <glyph glyph-name="uni0416" unicode="&#x416;" 
d="M0 0v128h64v64h64v-192h-128zM320 0v192h64v-64h64v-128h-128zM64 256v64h-64v128h128v-192h-64zM192 0v192h-64v64h64v192h64v-192h64v-64h-64v-192h-64zM320 256v192h128v-128h-64v-64h-64z" />
    <glyph glyph-name="uni0417" unicode="&#x417;" 
d="M64 0v64h-64v64h128v-64h192v128h-128v64h128v128h-192v-64h-128v64h64v64h320v-64h64v-128h-64v-64h64v-128h-64v-64h-320z" />
    <glyph glyph-name="uni0418" unicode="&#x418;" 
d="M0 0v448h128v-192h64v64h64v64h64v64h128v-448h-128v192h-64v-64h-64v-64h-64v-64h-128z" />
    <glyph glyph-name="uni0419" unicode="&#x419;" 
d="M192 384v64h64v-64h-64zM0 0v448h128v-192h64v64h64v64h64v64h128v-448h-128v192h-64v-64h-64v-64h-64v-64h-128z" />
    <glyph glyph-name="uni041A" unicode="&#x41a;" 
d="M0 0v448h128v-128h64v64h64v64h192v-64h-64v-64h-64v-64h-64v-64h64v-64h64v-64h64v-64h-128v64h-64v64h-64v64h-64v-192h-128z" />
    <glyph glyph-name="uni041B" unicode="&#x41b;" 
d="M0 0v320h64v64h64v64h192v-64h64v-64h64v-320h-128v320h-64v64h-64v-64h-64v-320h-128z" />
    <glyph glyph-name="uni041C" unicode="&#x41c;" 
d="M0 0v448h128v-64h64v-64h64v64h64v64h128v-448h-128v192h-64v-64h-64v64h-64v-192h-128z" />
    <glyph glyph-name="uni041D" unicode="&#x41d;" 
d="M0 0v448h128v-192h192v192h128v-448h-128v192h-192v-192h-128z" />
    <glyph glyph-name="uni041E" unicode="&#x41e;" 
d="M320 64v320h-192v-320h192zM64 0v64h-64v320h64v64h320v-64h64v-320h-64v-64h-320z" />
    <glyph glyph-name="uni041F" unicode="&#x41f;" 
d="M0 0v448h448v-448h-128v384h-192v-384h-128z" />
    <glyph glyph-name="uni0420" unicode="&#x420;" 
d="M320 192v192h-192v-192h192zM0 0v448h384v-64h64v-192h-64v-64h-256v-128h-128z" />
    <glyph glyph-name="uni0421" unicode="&#x421;" 
d="M128 0v64h-64v64h-64v192h64v64h64v64h256v-64h64v-64h-128v64h-128v-64h-64v-192h64v-64h128v64h128v-64h-64v-64h-256z" />
    <glyph glyph-name="uni0422" unicode="&#x422;" 
d="M128 0v384h-128v64h384v-64h-128v-384h-128z" />
    <glyph glyph-name="uni0423" unicode="&#x423;" 
d="M64 0v64h-64v64h128v-64h192v128h-256v64h-64v192h128v-192h192v192h128v-384h-64v-64h-320z" />
    <glyph glyph-name="uni0424" unicode="&#x424;" 
d="M192 256v128h-64v-128h64zM320 256v128h-64v-128h64zM192 0v192h-128v64h-64v128h64v64h320v-64h64v-128h-64v-64h-128v-192h-64z" />
    <glyph glyph-name="uni0425" unicode="&#x425;" 
d="M0 0v64h64v64h64v128h-64v64h-64v128h128v-64h64v-64h64v64h64v64h128v-64h-64v-64h-64v-128h64v-64h64v-128h-128v64h-64v64h-64v-64h-64v-64h-128z" />
    <glyph glyph-name="uni0426" unicode="&#x426;" 
d="M320 -64v64h-320v448h128v-384h128v384h128v-384h64v-128h-128z" />
    <glyph glyph-name="uni0427" unicode="&#x427;" 
d="M320 0v192h-64v-64h-192v64h-64v256h128v-192h192v192h128v-448h-128z" />
    <glyph glyph-name="uni0428" unicode="&#x428;" 
d="M0 0v448h128v-384h64v320h64v-320h64v384h128v-448h-448z" />
    <glyph glyph-name="uni0429" unicode="&#x429;" 
d="M384 -64v64h-384v448h128v-384h64v320h64v-320h64v384h128v-384h64v-128h-128z" />
    <glyph glyph-name="uni042A" unicode="&#x42a;" 
d="M320 64v128h-128v-128h128zM64 0v384h-64v64h192v-192h192v-64h64v-128h-64v-64h-320z" />
    <glyph glyph-name="uni042B" unicode="&#x42b;" 
d="M192 64v128h64v-128h-64zM0 0v448h128v-192h64v-64h-64v-128h64v-64h-192zM320 0v448h128v-448h-128z" />
    <glyph glyph-name="uni042C" unicode="&#x42c;" 
d="M320 64v128h-192v-128h192zM0 0v448h128v-192h256v-64h64v-128h-64v-64h-384z" />
    <glyph glyph-name="uni042D" unicode="&#x42d;" 
d="M64 0v64h-64v64h128v-64h192v128h-192v64h192v128h-192v-64h-128v64h64v64h320v-64h64v-320h-64v-64h-320z" />
    <glyph glyph-name="uni042E" unicode="&#x42e;" 
d="M0 0v448h128v-192h64v128h64v-320h-64v128h-64v-192h-128zM256 0v64h64v320h-64v64h128v-64h64v-320h-64v-64h-128z" />
    <glyph glyph-name="uni042F" unicode="&#x42f;" 
d="M320 256v128h-192v-128h192zM0 0v64h64v64h64v64h-64v64h-64v128h64v64h384v-448h-128v192h-64v-64h-64v-64h-64v-64h-128z" />
    <glyph glyph-name="uni0430" unicode="&#x430;" 
d="M320 64v128h-192v-128h192zM64 0v64h-64v128h64v64h256v64h-256v64h320v-64h64v-256h-64v-64h-320z" />
    <glyph glyph-name="uni0431" unicode="&#x431;" 
d="M320 64v128h-192v-128h192zM64 0v64h-64v256h64v64h64v64h192v-64h-128v-64h-64v-64h256v-64h64v-128h-64v-64h-320z" />
    <glyph glyph-name="uni0432" unicode="&#x432;" 
d="M320 64v128h-192v-128h192zM320 256v64h-192v-64h192zM0 0v384h384v-64h64v-64h-64v-64h64v-128h-64v-64h-384z" />
    <glyph glyph-name="uni0433" unicode="&#x433;" 
d="M0 0v384h448v-64h-320v-320h-128z" />
    <glyph glyph-name="uni0434" unicode="&#x434;" 
d="M256 64v256h-64v-256h64zM0 -64v128h64v256h64v64h256v-320h64v-128h-128v64h-192v-64h-128z" />
    <glyph glyph-name="uni0435" unicode="&#x435;" 
d="M384 64v64h64v-64h-64zM320 192v128h-192v-128h192zM64 0v64h-64v256h64v64h320v-64h64v-128h-64v-64h-256v-64h256v-64h-320z" />
    <glyph glyph-name="uni0436" unicode="&#x436;" 
d="M0 0v128h64v64h64v-192h-128zM320 0v192h64v-64h64v-128h-128zM64 256v64h-64v64h128v-128h-64zM192 0v192h-64v64h64v128h64v-128h64v-64h-64v-192h-64zM320 256v128h128v-64h-64v-64h-64z" />
    <glyph glyph-name="uni0437" unicode="&#x437;" 
d="M64 0v64h-64v64h128v-64h192v128h-128v64h128v64h-192v-64h-128v64h64v64h320v-64h64v-64h-64v-64h64v-128h-64v-64h-320z" />
    <glyph glyph-name="uni0438" unicode="&#x438;" 
d="M0 0v384h128v-192h64v64h64v64h64v64h128v-384h-128v192h-64v-64h-64v-64h-64v-64h-128z" />
    <glyph glyph-name="uni0439" unicode="&#x439;" 
d="M0 0v384h128v-192h64v64h64v64h64v64h128v-384h-128v192h-64v-64h-64v-64h-64v-64h-128zM192 384v64h64v-64h-64z" />
    <glyph glyph-name="uni043A" unicode="&#x43a;" 
d="M0 0v384h128v-128h64v64h64v64h128v-64h-64v-64h-64v-64h64v-64h64v-64h64v-64h-128v64h-64v64h-64v64h-64v-192h-128z" />
    <glyph glyph-name="uni043B" unicode="&#x43b;" 
d="M0 0v256h64v64h64v64h192v-64h64v-64h64v-256h-128v256h-64v64h-64v-64h-64v-256h-128z" />
    <glyph glyph-name="uni043C" unicode="&#x43c;" 
d="M0 0v384h128v-64h64v-64h64v64h64v64h128v-384h-128v192h-64v-64h-64v64h-64v-192h-128z" />
    <glyph glyph-name="uni043D" unicode="&#x43d;" 
d="M0 0v384h128v-128h192v128h128v-384h-128v192h-192v-192h-128z" />
    <glyph glyph-name="uni043E" unicode="&#x43e;" horiz-adv-x="608" 
d="M384 64v256h-256v-256h256zM64 0v64h-64v256h64v64h384v-64h64v-256h-64v-64h-384z" />
    <glyph glyph-name="uni043F" unicode="&#x43f;" 
d="M0 0v384h448v-384h-128v320h-192v-320h-128z" />
    <glyph glyph-name="uni0440" unicode="&#x440;" 
d="M320 128v192h-192v-192h192zM0 -64v448h384v-64h64v-192h-64v-64h-256v-128h-128z" />
    <glyph glyph-name="uni0441" unicode="&#x441;" 
d="M128 0v64h-64v64h-64v128h64v64h64v64h256v-64h64v-64h-128v64h-128v-64h-64v-128h64v-64h128v64h128v-64h-64v-64h-256z" />
    <glyph glyph-name="uni0442" unicode="&#x442;" 
d="M128 0v320h-128v64h384v-64h-128v-320h-128z" />
    <glyph glyph-name="uni0443" unicode="&#x443;" 
d="M64 -128v64h192v64h-192v64h-64v320h128v-320h128v320h128v-448h-64v-64h-256z" />
    <glyph glyph-name="uni0444" unicode="&#x444;" 
d="M192 128v128h-64v-128h64zM320 128v128h-64v-128h64zM192 0v64h-128v64h-64v128h64v64h128v64h64v-64h128v-64h64v-128h-64v-64h-128v-64h-64z" />
    <glyph glyph-name="uni0445" unicode="&#x445;" 
d="M0 0v64h64v64h64v64h-64v64h-64v128h128v-64h64v-64h64v64h64v64h128v-64h-64v-64h-64v-64h64v-64h64v-128h-128v64h-64v64h-64v-64h-64v-64h-128z" />
    <glyph glyph-name="uni0446" unicode="&#x446;" 
d="M320 -64v64h-320v384h128v-320h128v320h128v-320h64v-128h-128z" />
    <glyph glyph-name="uni0447" unicode="&#x447;" 
d="M320 0v128h-64v-64h-192v64h-64v256h128v-192h192v192h128v-384h-128z" />
    <glyph glyph-name="uni0448" unicode="&#x448;" 
d="M0 0v384h128v-320h64v256h64v-256h64v320h128v-384h-448z" />
    <glyph glyph-name="uni0449" unicode="&#x449;" 
d="M384 -64v64h-384v384h128v-320h64v256h64v-256h64v320h128v-320h64v-128h-128z" />
    <glyph glyph-name="uni044A" unicode="&#x44a;" 
d="M320 64v128h-128v-128h128zM64 0v320h-64v64h192v-128h192v-64h64v-128h-64v-64h-320z" />
    <glyph glyph-name="uni044B" unicode="&#x44b;" 
d="M192 64v128h64v-128h-64zM0 0v384h128v-128h64v-64h-64v-128h64v-64h-192zM320 0v384h128v-384h-128z" />
    <glyph glyph-name="uni044C" unicode="&#x44c;" 
d="M320 64v128h-192v-128h192zM0 0v384h128v-128h256v-64h64v-128h-64v-64h-384z" />
    <glyph glyph-name="uni044D" unicode="&#x44d;" 
d="M64 0v64h-64v64h128v-64h192v128h-128v64h128v64h-192v-64h-128v64h64v64h320v-64h64v-256h-64v-64h-320z" />
    <glyph glyph-name="uni044E" unicode="&#x44e;" 
d="M0 0v384h128v-128h64v64h64v-256h-64v128h-64v-192h-128zM256 0v64h64v256h-64v64h128v-64h64v-256h-64v-64h-128z" />
    <glyph glyph-name="uni044F" unicode="&#x44f;" 
d="M320 192v128h-192v-128h192zM64 0v64h64v64h-64v64h-64v128h64v64h384v-384h-128v128h-64v-64h-64v-64h-128z" />
    <glyph glyph-name="quoteleft" unicode="&#x2018;" horiz-adv-x="288" 
d="M0 256v128h64v64h128v-64h-64v-128h-128z" />
    <glyph glyph-name="quoteright" unicode="&#x2019;" horiz-adv-x="288" 
d="M0 256v64h64v128h128v-128h-64v-64h-128z" />
    <glyph glyph-name="quotedblleft" unicode="&#x201c;" 
d="M0 256v128h64v64h128v-64h-64v-128h-128zM256 256v128h64v64h128v-64h-64v-128h-128z" />
    <glyph glyph-name="quotedblright" unicode="&#x201d;" 
d="M0 256v64h64v128h128v-128h-64v-64h-128zM256 256v64h64v128h128v-128h-64v-64h-128z" />
    <glyph glyph-name="trademark" unicode="&#x2122;" horiz-adv-x="608" 
d="M320 256v64h64v-64h-64zM64 256v128h-64v64h256v-64h64v-64h-64v-64h-64v128h-64v-128h-64zM448 256v64h-64v64h64v64h64v-192h-64z" />
    <glyph glyph-name="uni3041" unicode="&#x3041;" 
d="M128 0v64h64v-64h-64zM320 0v64h64v-64h-64zM64 64v128h64v-128h-64zM384 64v128h64v-128h-64zM192 64v128h-64v64h64v64h-128v64h128v64h64v-64h192v-64h-192v-64h128v-64h-64v-64h-64v-64h-64z" />
    <glyph glyph-name="uni3042" unicode="&#x3042;" 
d="M64 0v64h128v-64h-128zM320 0v64h64v-64h-64zM192 64v64h64v-64h-64zM256 128v64h64v-64h-64zM0 64v192h64v-192h-64zM384 64v128h-64v64h-128v-128h-64v128h-64v64h64v64h-128v64h128v64h64v-64h256v-64h-256v-64h192v-64h64v-192h-64z" />
    <glyph glyph-name="uni3043" unicode="&#x3043;" 
d="M128 0v64h64v-64h-64zM192 64v64h64v-64h-64zM320 128v192h64v-192h-64zM64 64v320h64v-320h-64zM256 320v64h64v-64h-64z" />
    <glyph glyph-name="uni3044" unicode="&#x3044;" 
d="M128 0v64h128v-64h-128zM256 64v64h64v-64h-64zM384 128v256h64v-256h-64zM64 64v384h64v-384h-64zM320 384v64h64v-64h-64z" />
    <glyph glyph-name="uni3045" unicode="&#x3045;" 
d="M256 0v64h64v-64h-64zM320 64v64h64v-64h-64zM128 192v64h64v-64h-64zM384 128v128h64v-128h-64zM192 256v64h192v-64h-192zM192 384v64h128v-64h-128z" />
    <glyph glyph-name="uni3046" unicode="&#x3046;" 
d="M192 0v64h128v-64h-128zM320 64v64h64v-64h-64zM64 256v64h64v-64h-64zM384 128v192h64v-192h-64zM128 320v64h256v-64h-256zM128 448v64h192v-64h-192z" />
    <glyph glyph-name="uni3047" unicode="&#x3047;" 
d="M64 0v64h64v-64h-64zM256 0v64h128v-64h-128zM128 64v64h64v64h64v-128h-128zM256 192v64h-192v64h320v-64h-64v-64h-64zM192 384v64h128v-64h-128z" />
    <glyph glyph-name="uni3048" unicode="&#x3048;" 
d="M0 0v64h64v-64h-64zM256 0v64h128v-64h-128zM64 64v64h64v-64h-64zM192 64v64h-64v64h64v64h64v-192h-64zM256 256v64h-256v64h384v-64h-64v-64h-64zM128 448v64h128v-64h-128z" />
    <glyph glyph-name="uni3049" unicode="&#x3049;" 
d="M64 0v64h64v-64h-64zM256 0v64h64v-64h-64zM0 64v64h64v-64h-64zM320 64v128h64v-128h-64zM320 320v64h64v-64h-64zM128 64v64h-64v64h64v128h-128v64h128v64h64v-64h64v-64h-64v-64h128v-64h-128v-128h-64zM256 384v64h64v-64h-64z" />
    <glyph glyph-name="uni304A" unicode="&#x304a;" 
d="M64 0v64h64v-64h-64zM320 0v64h64v-64h-64zM0 64v128h64v-128h-64zM384 64v192h64v-192h-64zM384 384v64h64v-64h-64zM128 64v128h-64v64h64v128h-128v64h128v64h64v-64h128v-64h-128v-64h192v-64h-192v-192h-64zM320 448v64h64v-64h-64z" />
    <glyph glyph-name="uni304B" unicode="&#x304b;" 
d="M192 0v64h64v-64h-64zM0 64v64h64v-64h-64zM128 64v64h64v-64h-64zM64 128v128h64v-128h-64zM256 64v256h64v-256h-64zM384 256v192h64v-192h-64zM128 256v64h-128v64h128v128h64v-128h64v-64h-64v-64h-64zM320 448v64h64v-64h-64z" />
    <glyph glyph-name="uni304C" unicode="&#x304c;" horiz-adv-x="736" 
d="M192 0v64h64v-64h-64zM0 64v64h64v-64h-64zM128 64v64h64v-64h-64zM64 128v128h64v-128h-64zM256 64v256h64v-256h-64zM384 256v192h64v-192h-64zM128 256v64h-128v64h128v128h64v-128h64v-64h-64v-64h-64zM320 448v64h64v-64h-64zM448 448v128h64v-128h-64zM576 448v128
h64v-128h-64z" />
    <glyph glyph-name="uni304D" unicode="&#x304d;" 
d="M128 0v64h256v-64h-256zM64 64v64h64v-64h-64zM256 128v64h64v64h-320v64h256v64h-192v64h128v64h64v-64h128v-64h-64v-64h128v-64h-64v-128h-128z" />
    <glyph glyph-name="uni304E" unicode="&#x304e;" horiz-adv-x="736" 
d="M128 0v64h256v-64h-256zM64 64v64h64v-64h-64zM256 128v64h64v64h-320v64h256v64h-192v64h128v64h64v-64h128v-64h-64v-64h128v-64h-64v-128h-128zM448 448v128h64v-128h-64zM576 448v128h64v-128h-64z" />
    <glyph glyph-name="uni304F" unicode="&#x304f;" 
d="M256 0v64h64v-64h-64zM192 64v64h64v-64h-64zM128 128v64h64v-64h-64zM64 192v128h64v-128h-64zM128 320v64h64v-64h-64zM192 384v64h64v-64h-64zM256 448v64h64v-64h-64z" />
    <glyph glyph-name="uni3050" unicode="&#x3050;" horiz-adv-x="672" 
d="M256 0v64h64v-64h-64zM192 64v64h64v-64h-64zM128 128v64h64v-64h-64zM64 192v128h64v-128h-64zM128 320v64h64v-64h-64zM192 384v64h64v-64h-64zM256 448v64h64v-64h-64zM384 448v128h64v-128h-64zM512 448v128h64v-128h-64z" />
    <glyph glyph-name="uni3051" unicode="&#x3051;" 
d="M64 0v64h64v-64h-64zM256 0v64h64v-64h-64zM0 64v384h64v-384h-64zM320 64v256h-192v64h192v128h64v-128h64v-64h-64v-256h-64z" />
    <glyph glyph-name="uni3052" unicode="&#x3052;" horiz-adv-x="736" 
d="M64 0v64h64v-64h-64zM256 0v64h64v-64h-64zM0 64v384h64v-384h-64zM320 64v256h-192v64h192v128h64v-128h64v-64h-64v-256h-64zM448 448v128h64v-128h-64zM576 448v128h64v-128h-64z" />
    <glyph glyph-name="uni3053" unicode="&#x3053;" 
d="M128 0v64h320v-64h-320zM64 64v64h64v-64h-64zM256 256v64h64v-64h-64zM320 320v64h-192v64h256v-64h64v-64h-128z" />
    <glyph glyph-name="uni3054" unicode="&#x3054;" horiz-adv-x="736" 
d="M128 0v64h320v-64h-320zM64 64v64h64v-64h-64zM256 256v64h64v-64h-64zM320 320v64h-192v64h256v-64h64v-64h-128zM448 448v128h64v-128h-64zM576 448v128h64v-128h-64z" />
    <glyph glyph-name="uni3055" unicode="&#x3055;" 
d="M128 0v64h192v-64h-192zM64 64v128h64v-128h-64zM320 192v128h64v-128h-64zM256 320v64h-192v64h128v64h64v-64h192v-64h-128v-64h-64z" />
    <glyph glyph-name="uni3056" unicode="&#x3056;" horiz-adv-x="736" 
d="M128 0v64h192v-64h-192zM64 64v128h64v-128h-64zM320 192v128h64v-128h-64zM256 320v64h-192v64h128v64h64v-64h192v-64h-128v-64h-64zM448 448v128h64v-128h-64zM576 448v128h64v-128h-64z" />
    <glyph glyph-name="uni3057" unicode="&#x3057;" 
d="M192 0v64h192v-64h-192zM384 64v64h64v-64h-64zM128 64v384h64v-384h-64z" />
    <glyph glyph-name="uni3058" unicode="&#x3058;" horiz-adv-x="736" 
d="M192 0v64h192v-64h-192zM384 64v64h64v-64h-64zM128 64v384h64v-384h-64zM448 448v128h64v-128h-64zM576 448v128h64v-128h-64z" />
    <glyph glyph-name="uni3059" unicode="&#x3059;" 
d="M192 0v64h64v-64h-64zM64 192v64h64v-64h-64zM256 64v64h-128v64h128v64h-128v64h128v64h-256v64h256v64h64v-64h128v-64h-128v-320h-64z" />
    <glyph glyph-name="uni305A" unicode="&#x305a;" horiz-adv-x="736" 
d="M192 0v64h64v-64h-64zM64 192v64h64v-64h-64zM256 64v64h-128v64h128v64h-128v64h128v64h-256v64h256v64h64v-64h128v-64h-128v-320h-64zM448 448v128h64v-128h-64zM576 448v128h64v-128h-64z" />
    <glyph glyph-name="uni305B" unicode="&#x305b;" 
d="M128 0v64h256v-64h-256zM256 128v64h64v-64h-64zM64 64v192h-64v64h64v128h64v-128h192v128h64v-128h64v-64h-64v-64h-64v64h-192v-192h-64z" />
    <glyph glyph-name="uni305C" unicode="&#x305c;" horiz-adv-x="736" 
d="M128 0v64h256v-64h-256zM256 128v64h64v-64h-64zM64 64v192h-64v64h64v128h64v-128h192v128h64v-128h64v-64h-64v-64h-64v64h-192v-192h-64zM448 448v128h64v-128h-64zM576 448v128h64v-128h-64z" />
    <glyph glyph-name="uni305D" unicode="&#x305d;" 
d="M256 0v64h128v-64h-128zM192 64v128h64v-128h-64zM256 192v64h-192v64h128v64h64v-64h192v-64h-128v-64h-64zM256 384v64h-128v64h256v-64h-64v-64h-64z" />
    <glyph glyph-name="uni305E" unicode="&#x305e;" horiz-adv-x="736" 
d="M256 0v64h128v-64h-128zM192 64v128h64v-128h-64zM256 192v64h-192v64h128v64h64v-64h192v-64h-128v-64h-64zM256 384v64h-128v64h256v-64h-64v-64h-64zM448 448v128h64v-128h-64zM576 448v128h64v-128h-64z" />
    <glyph glyph-name="uni305F" unicode="&#x305f;" 
d="M256 0v64h192v-64h-192zM192 64v64h64v-64h-64zM0 0v192h64v-192h-64zM64 192v128h64v-128h-64zM256 256v64h192v-64h-192zM128 320v64h-128v64h128v64h64v-64h128v-64h-128v-64h-64z" />
    <glyph glyph-name="uni3060" unicode="&#x3060;" horiz-adv-x="736" 
d="M256 0v64h192v-64h-192zM192 64v64h64v-64h-64zM0 0v192h64v-192h-64zM64 192v128h64v-128h-64zM256 256v64h192v-64h-192zM128 320v64h-128v64h128v64h64v-64h128v-64h-128v-64h-64zM448 448v128h64v-128h-64zM576 448v128h64v-128h-64z" />
    <glyph glyph-name="uni3061" unicode="&#x3061;" 
d="M192 0v64h128v-64h-128zM320 64v64h64v-64h-64zM384 128v128h64v-128h-64zM128 256v128h-64v64h64v64h64v-64h192v-64h-192v-64h192v-64h-256z" />
    <glyph glyph-name="uni3062" unicode="&#x3062;" horiz-adv-x="736" 
d="M192 0v64h128v-64h-128zM320 64v64h64v-64h-64zM384 128v128h64v-128h-64zM128 256v128h-64v64h64v64h64v-64h192v-64h-192v-64h192v-64h-256zM448 448v128h64v-128h-64zM576 448v128h64v-128h-64z" />
    <glyph glyph-name="uni3063" unicode="&#x3063;" 
d="M128 0v64h128v-64h-128zM256 64v128h64v-128h-64zM0 192v64h256v-64h-256z" />
    <glyph glyph-name="uni3064" unicode="&#x3064;" 
d="M128 0v64h192v-64h-192zM320 64v64h64v-64h-64zM384 128v192h64v-192h-64zM0 320v64h384v-64h-384z" />
    <glyph glyph-name="uni3065" unicode="&#x3065;" horiz-adv-x="736" 
d="M128 0v64h192v-64h-192zM320 64v64h64v-64h-64zM384 128v192h64v-192h-64zM0 320v64h384v-64h-384zM448 448v128h64v-128h-64zM576 448v128h64v-128h-64z" />
    <glyph glyph-name="uni3066" unicode="&#x3066;" 
d="M256 0v64h64v-64h-64zM192 64v192h64v-192h-64zM256 256v64h64v-64h-64zM320 320v64h-256v64h384v-64h-64v-64h-64z" />
    <glyph glyph-name="uni3067" unicode="&#x3067;" horiz-adv-x="608" 
d="M256 0v64h64v-64h-64zM192 64v192h64v-192h-64zM320 128v128h64v-128h-64zM256 256v64h64v-64h-64zM448 192v128h64v-128h-64zM320 320v64h-256v64h384v-64h-64v-64h-64z" />
    <glyph glyph-name="uni3068" unicode="&#x3068;" 
d="M128 0v64h320v-64h-320zM64 64v128h64v-128h-64zM256 320v64h128v-64h-128zM128 192v320h64v-192h64v-64h-64v-64h-64z" />
    <glyph glyph-name="uni3069" unicode="&#x3069;" horiz-adv-x="736" 
d="M128 0v64h320v-64h-320zM64 64v128h64v-128h-64zM256 320v64h128v-64h-128zM128 192v320h64v-192h64v-64h-64v-64h-64zM448 448v128h64v-128h-64zM576 448v128h64v-128h-64z" />
    <glyph glyph-name="uni306A" unicode="&#x306a;" 
d="M128 0v64h128v-64h-128zM64 64v64h64v-64h-64zM0 192v64h64v-64h-64zM256 64v64h-128v64h128v128h64v-192h64v-64h-128zM384 320v64h64v-64h-64zM320 384v64h64v-64h-64zM64 256v64h-64v64h128v128h64v-128h64v-64h-128v-64h-64z" />
    <glyph glyph-name="uni306B" unicode="&#x306b;" 
d="M256 0v64h192v-64h-192zM192 64v64h64v-64h-64zM0 0v448h64v-448h-64zM192 384v64h256v-64h-256z" />
    <glyph glyph-name="uni306C" unicode="&#x306c;" horiz-adv-x="608" 
d="M64 0v64h128v-64h-128zM192 64v64h64v-64h-64zM320 64v64h64v-64h-64zM0 64v192h64v-192h-64zM256 128v128h64v-128h-64zM384 0v64h64v64h-64v64h64v128h64v-320h-128zM128 128v128h-64v192h64v-128h64v-192h-64zM320 256v64h-128v64h128v128h64v-128h64v-64h-64v-64h-64
z" />
    <glyph glyph-name="uni306D" unicode="&#x306d;" 
d="M0 64v64h64v-64h-64zM256 64v64h64v-64h-64zM320 0v64h64v64h-64v64h64v128h64v-320h-128zM256 320v64h128v-64h-128zM128 0v128h-64v64h64v128h-128v64h128v128h64v-192h64v-64h-64v-256h-64z" />
    <glyph glyph-name="uni306E" unicode="&#x306e;" 
d="M64 0v64h128v-64h-128zM320 0v64h64v-64h-64zM0 64v256h64v-256h-64zM384 64v256h64v-256h-64zM64 320v64h64v-64h-64zM320 320v64h64v-64h-64zM192 64v320h-64v64h192v-64h-64v-320h-64z" />
    <glyph glyph-name="uni306F" unicode="&#x306f;" 
d="M192 0v64h128v-64h-128zM128 64v64h64v-64h-64zM0 0v448h64v-448h-64zM320 64v64h-128v64h128v128h-128v64h128v64h64v-64h64v-64h-64v-192h64v-64h-128z" />
    <glyph glyph-name="uni3070" unicode="&#x3070;" horiz-adv-x="736" 
d="M192 0v64h128v-64h-128zM128 64v64h64v-64h-64zM0 0v448h64v-448h-64zM320 64v64h-128v64h128v128h-128v64h128v64h64v-64h64v-64h-64v-192h64v-64h-128zM448 448v128h64v-128h-64zM576 448v128h64v-128h-64z" />
    <glyph glyph-name="uni3071" unicode="&#x3071;" horiz-adv-x="736" 
d="M192 0v64h128v-64h-128zM128 64v64h64v-64h-64zM0 0v448h64v-448h-64zM320 64v64h-128v64h128v128h-128v64h128v64h64v-64h64v-64h-64v-192h64v-64h-128zM512 448v64h64v-64h-64zM448 512v64h64v-64h-64zM576 512v64h64v-64h-64zM512 576v64h64v-64h-64z" />
    <glyph glyph-name="uni3072" unicode="&#x3072;" 
d="M128 0v64h192v-64h-192zM64 64v192h64v-192h-64zM320 64v192h64v-64h64v-64h-64v-64h-64zM128 256v64h64v-64h-64zM192 320v64h-128v64h256v-64h-64v-64h-64z" />
    <glyph glyph-name="uni3073" unicode="&#x3073;" horiz-adv-x="736" 
d="M128 0v64h192v-64h-192zM64 64v192h64v-192h-64zM320 64v192h64v-64h64v-64h-64v-64h-64zM128 256v64h64v-64h-64zM192 320v64h-128v64h256v-64h-64v-64h-64zM448 448v128h64v-128h-64zM576 448v128h64v-128h-64z" />
    <glyph glyph-name="uni3074" unicode="&#x3074;" horiz-adv-x="736" 
d="M128 0v64h192v-64h-192zM64 64v192h64v-192h-64zM320 64v192h64v-64h64v-64h-64v-64h-64zM128 256v64h64v-64h-64zM192 320v64h-128v64h256v-64h-64v-64h-64zM512 448v64h64v-64h-64zM448 512v64h64v-64h-64zM576 512v64h64v-64h-64zM512 576v64h64v-64h-64z" />
    <glyph glyph-name="uni3075" unicode="&#x3075;" 
d="M128 0v64h128v-64h-128zM0 64v128h64v-128h-64zM384 64v128h64v-128h-64zM64 192v64h64v-64h-64zM256 64v192h64v-192h-64zM192 256v64h64v-64h-64zM256 384v64h64v-64h-64zM128 448v64h128v-64h-128z" />
    <glyph glyph-name="uni3076" unicode="&#x3076;" horiz-adv-x="736" 
d="M128 0v64h128v-64h-128zM0 64v128h64v-128h-64zM384 64v128h64v-128h-64zM64 192v64h64v-64h-64zM256 64v192h64v-192h-64zM192 256v64h64v-64h-64zM256 384v64h64v-64h-64zM128 448v64h128v-64h-128zM448 448v128h64v-128h-64zM576 448v128h64v-128h-64z" />
    <glyph glyph-name="uni3077" unicode="&#x3077;" horiz-adv-x="736" 
d="M128 0v64h128v-64h-128zM0 64v128h64v-128h-64zM384 64v128h64v-128h-64zM64 192v64h64v-64h-64zM256 64v192h64v-192h-64zM192 256v64h64v-64h-64zM256 384v64h64v-64h-64zM128 448v64h128v-64h-128zM512 448v64h64v-64h-64zM448 512v64h64v-64h-64zM576 512v64h64v-64
h-64zM512 576v64h64v-64h-64z" />
    <glyph glyph-name="uni3078" unicode="&#x3078;" 
d="M384 64v64h64v-64h-64zM320 128v64h64v-64h-64zM0 192v64h64v-64h-64zM256 192v64h64v-64h-64zM64 256v64h64v-64h-64zM192 256v64h64v-64h-64zM128 320v64h64v-64h-64z" />
    <glyph glyph-name="uni3079" unicode="&#x3079;" horiz-adv-x="736" 
d="M384 64v64h64v-64h-64zM320 128v64h64v-64h-64zM0 192v64h64v-64h-64zM256 192v64h64v-64h-64zM64 256v64h64v-64h-64zM192 256v64h64v-64h-64zM128 320v64h64v-64h-64zM448 448v128h64v-128h-64zM576 448v128h64v-128h-64z" />
    <glyph glyph-name="uni307A" unicode="&#x307a;" horiz-adv-x="736" 
d="M384 64v64h64v-64h-64zM320 128v64h64v-64h-64zM0 192v64h64v-64h-64zM256 192v64h64v-64h-64zM64 256v64h64v-64h-64zM192 256v64h64v-64h-64zM128 320v64h64v-64h-64zM512 448v64h64v-64h-64zM448 512v64h64v-64h-64zM576 512v64h64v-64h-64zM512 576v64h64v-64h-64z
" />
    <glyph glyph-name="uni307B" unicode="&#x307b;" 
d="M192 0v64h128v-64h-128zM128 64v64h64v-64h-64zM0 0v448h64v-448h-64zM320 64v64h-128v64h128v64h-192v64h192v64h-192v64h320v-64h-64v-64h64v-64h-64v-128h64v-64h-128z" />
    <glyph glyph-name="uni307C" unicode="&#x307c;" horiz-adv-x="736" 
d="M192 0v64h128v-64h-128zM128 64v64h64v-64h-64zM0 0v448h64v-448h-64zM320 64v64h-128v64h128v64h-192v64h192v64h-192v64h320v-64h-64v-64h64v-64h-64v-128h64v-64h-128zM448 448v128h64v-128h-64zM576 448v128h64v-128h-64z" />
    <glyph glyph-name="uni307D" unicode="&#x307d;" horiz-adv-x="736" 
d="M192 0v64h128v-64h-128zM128 64v64h64v-64h-64zM0 0v448h64v-448h-64zM320 64v64h-128v64h128v64h-192v64h192v64h-192v64h320v-64h-64v-64h64v-64h-64v-128h64v-64h-128zM512 448v64h64v-64h-64zM448 512v64h64v-64h-64zM576 512v64h64v-64h-64zM512 576v64h64v-64h-64z
" />
    <glyph glyph-name="uni307E" unicode="&#x307e;" 
d="M128 0v64h128v-64h-128zM64 64v64h64v-64h-64zM384 64v64h64v-64h-64zM256 64v64h-128v64h128v64h-192v64h192v64h-192v64h192v64h64v-64h128v-64h-128v-64h128v-64h-128v-64h64v-64h-64v-64h-64z" />
    <glyph glyph-name="uni307F" unicode="&#x307f;" 
d="M64 0v64h64v-64h-64zM256 0v64h64v-64h-64zM0 64v128h64v-128h-64zM128 64v128h-64v64h64v64h64v-64h128v128h64v-192h64v-64h-64v-64h-64v128h-128v-128h-64zM192 320v128h-128v64h192v-192h-64z" />
    <glyph glyph-name="uni3080" unicode="&#x3080;" 
d="M128 0v64h256v-64h-256zM384 64v64h64v-64h-64zM64 64v128h64v-128h-64zM0 192v64h64v-64h-64zM320 192v64h64v-64h-64zM256 256v64h64v-64h-64zM128 192v64h-64v64h64v64h-64v64h64v64h64v-64h128v-64h-128v-192h-64z" />
    <glyph glyph-name="uni3081" unicode="&#x3081;" 
d="M64 0v64h128v-64h-128zM320 0v64h64v-64h-64zM192 64v64h64v-64h-64zM0 64v192h64v-192h-64zM256 128v128h64v-128h-64zM128 128v128h-64v192h64v-128h64v-192h-64zM384 64v192h-64v64h-128v64h128v128h64v-192h64v-256h-64z" />
    <glyph glyph-name="uni3082" unicode="&#x3082;" 
d="M192 0v64h192v-64h-192zM384 64v64h64v-64h-64zM128 64v128h-64v64h64v64h-64v64h64v128h64v-128h128v-64h-128v-64h128v-64h-128v-128h-64z" />
    <glyph glyph-name="uni3083" unicode="&#x3083;" 
d="M256 0v64h64v-64h-64zM192 64v128h64v-128h-64zM320 128v64h64v-64h-64zM64 192v64h64v128h64v-64h64v64h64v-64h128v-128h-64v64h-192v-64h-128z" />
    <glyph glyph-name="uni3084" unicode="&#x3084;" 
d="M192 0v128h64v-128h-64zM128 128v128h64v-128h-64zM256 192v64h128v-64h-128zM0 256v64h64v64h128v-64h-64v-64h-128zM384 256v128h64v-128h-64zM0 384v64h64v-64h-64zM192 384v128h64v-64h128v-64h-192z" />
    <glyph glyph-name="uni3085" unicode="&#x3085;" 
d="M192 0v64h64v-64h-64zM384 128v128h64v-128h-64zM64 64v256h64v-64h64v-64h-64v-128h-64zM256 64v192h-64v64h64v64h64v-64h64v-64h-64v-128h64v-64h-128z" />
    <glyph glyph-name="uni3086" unicode="&#x3086;" 
d="M192 0v64h64v-64h-64zM128 320v64h64v-64h-64zM384 192v192h64v-192h-64zM0 192v256h64v-128h64v-64h-64v-64h-64zM256 64v64h-64v64h64v192h-64v64h64v64h64v-64h64v-64h-64v-192h64v-64h-64v-64h-64z" />
    <glyph glyph-name="uni3087" unicode="&#x3087;" 
d="M320 0v64h64v-64h-64zM64 64v64h64v-64h-64zM128 0v64h64v64h-64v64h64v192h64v-64h128v-64h-128v-128h64v-64h-64v-64h-128z" />
    <glyph glyph-name="uni3088" unicode="&#x3088;" 
d="M128 0v64h128v-64h-128zM384 0v64h64v-64h-64zM64 64v64h64v-64h-64zM256 64v64h-128v64h128v320h64v-128h128v-64h-128v-192h64v-64h-128z" />
    <glyph glyph-name="uni3089" unicode="&#x3089;" 
d="M192 0v64h128v-64h-128zM320 64v64h64v-64h-64zM384 128v128h64v-128h-64zM192 256v64h192v-64h-192zM64 128v256h64v-128h64v-64h-64v-64h-64zM256 384v64h64v-64h-64zM128 448v64h128v-64h-128zM0 512v64h128v-64h-128z" />
    <glyph glyph-name="uni308A" unicode="&#x308a;" 
d="M256 0v64h64v-64h-64zM320 64v128h64v-128h-64zM64 256v192h64v-192h-64zM384 192v320h64v-320h-64z" />
    <glyph glyph-name="uni308B" unicode="&#x308b;" horiz-adv-x="480" 
d="M64 64v64h64v-64h-64zM128 0v64h64v64h64v-64h64v-64h-192zM128 128v64h64v-64h-64zM0 192v64h64v-64h-64zM320 64v192h64v-192h-64zM64 256v64h64v64h64v-64h128v-64h-256zM192 384v64h-128v64h256v-64h-64v-64h-64z" />
    <glyph glyph-name="uni308C" unicode="&#x308c;" 
d="M384 0v64h64v-64h-64zM0 64v64h64v-64h-64zM320 64v128h64v-128h-64zM384 192v128h64v-128h-64zM256 320v64h128v-64h-128zM128 0v128h-64v64h64v128h-128v64h128v128h64v-192h64v-64h-64v-256h-64z" />
    <glyph glyph-name="uni308D" unicode="&#x308d;" horiz-adv-x="480" 
d="M128 0v64h192v-64h-192zM0 192v64h64v-64h-64zM320 64v192h64v-192h-64zM64 256v64h64v64h64v-64h128v-64h-256zM192 384v64h-128v64h256v-64h-64v-64h-64z" />
    <glyph glyph-name="uni308E" unicode="&#x308e;" 
d="M320 0v64h64v-64h-64zM384 64v128h64v-128h-64zM256 192v64h128v-64h-128zM128 0v64h-64v64h64v64h-64v64h64v64h64v-128h64v-64h-64v-128h-64z" />
    <glyph glyph-name="uni308F" unicode="&#x308f;" 
d="M320 0v64h64v-64h-64zM0 64v64h64v-64h-64zM384 64v256h64v-256h-64zM256 320v64h128v-64h-128zM128 0v128h-64v64h64v128h-128v64h128v128h64v-192h64v-64h-64v-256h-64z" />
    <glyph glyph-name="uni3092" unicode="&#x3092;" 
d="M64 0v128h64v-64h256v-64h-320zM128 128v64h64v-64h-64zM0 192v64h64v-64h-64zM320 256v64h64v-64h-64zM256 128v64h-64v64h-128v64h64v64h-128v64h192v64h64v-64h64v-64h-128v-64h64v-64h64v-128h-64z" />
    <glyph glyph-name="uni3093" unicode="&#x3093;" 
d="M320 0v64h64v-64h-64zM0 0v128h64v-128h-64zM384 64v64h64v-64h-64zM256 64v128h64v-128h-64zM64 128v128h64v128h64v-128h64v-64h-128v-64h-64zM192 384v128h64v-128h-64z" />
    <glyph glyph-name="uni3094" unicode="&#x3094;" horiz-adv-x="736" 
d="M192 0v64h128v-64h-128zM320 64v64h64v-64h-64zM64 256v64h64v-64h-64zM384 128v192h64v-192h-64zM128 320v64h256v-64h-256zM128 448v64h192v-64h-192zM448 448v128h64v-128h-64zM576 448v128h64v-128h-64z" />
    <glyph glyph-name="uni3095" unicode="&#x3095;" horiz-adv-x="480" 
d="M64 0v64h64v-64h-64zM256 0v256h64v-256h-64zM128 64v192h-64v64h64v64h64v-64h64v-64h-64v-192h-64zM320 320v64h64v-64h-64zM256 384v64h64v-64h-64z" />
    <glyph glyph-name="uni3096" unicode="&#x3096;" 
d="M128 0v64h64v-64h-64zM256 0v64h64v-64h-64zM64 64v320h64v-320h-64zM320 64v192h-128v64h128v64h64v-64h64v-64h-64v-192h-64z" />
    <glyph glyph-name="uni3099" unicode="&#x3099;" horiz-adv-x="736" 
d="M448 448v128h64v-128h-64zM576 448v128h64v-128h-64z" />
    <glyph glyph-name="uni309A" unicode="&#x309a;" horiz-adv-x="736" 
d="M512 448v64h64v-64h-64zM448 512v64h64v-64h-64zM576 512v64h64v-64h-64zM512 576v64h64v-64h-64z" />
    <glyph glyph-name="uni309B" unicode="&#x309b;" horiz-adv-x="736" 
d="M448 448v128h64v-128h-64zM576 448v128h64v-128h-64z" />
    <glyph glyph-name="uni309C" unicode="&#x309c;" horiz-adv-x="736" 
d="M512 448v64h64v-64h-64zM448 512v64h64v-64h-64zM576 512v64h64v-64h-64zM512 576v64h64v-64h-64z" />
    <glyph glyph-name="uni30A1" unicode="&#x30a1;" 
d="M192 0v192h128v-64h-64v-128h-64zM320 192v64h-256v64h320v-128h-64z" />
    <glyph glyph-name="uni30A2" unicode="&#x30a2;" 
d="M0 0v64h128v-64h-128zM128 64v256h64v-64h128v-64h-128v-128h-64zM320 256v128h-320v64h384v-192h-64z" />
    <glyph glyph-name="uni30A3" unicode="&#x30a3;" 
d="M192 0v128h-128v64h128v64h128v-64h-64v-192h-64zM320 256v64h64v-64h-64z" />
    <glyph glyph-name="uni30A4" unicode="&#x30a4;" 
d="M0 128v64h128v-64h-128zM192 0v192h-64v64h64v64h64v-320h-64zM256 320v64h64v-64h-64zM320 384v64h64v-64h-64z" />
    <glyph glyph-name="uni30A5" unicode="&#x30a5;" 
d="M192 0v64h128v-64h-128zM320 64v128h-192v-64h-64v128h128v64h64v-64h128v-192h-64z" />
    <glyph glyph-name="uni30A6" unicode="&#x30a6;" 
d="M128 0v64h192v-64h-192zM320 64v64h64v-64h-64zM384 128v192h-320v-128h-64v192h192v64h64v-64h192v-256h-64z" />
    <glyph glyph-name="uni30A7" unicode="&#x30a7;" 
d="M64 0v64h128v192h-64v64h192v-64h-64v-192h128v-64h-320z" />
    <glyph glyph-name="uni30A8" unicode="&#x30a8;" 
d="M0 0v64h192v256h-192v64h448v-64h-192v-256h192v-64h-448z" />
    <glyph glyph-name="uni30A9" unicode="&#x30a9;" 
d="M64 0v64h64v-64h-64zM128 64v64h64v-64h-64zM256 0v128h-64v64h-128v64h192v64h64v-64h64v-64h-64v-192h-64z" />
    <glyph glyph-name="uni30AA" unicode="&#x30aa;" 
d="M0 64v64h64v-64h-64zM64 128v64h64v-64h-64zM128 192v64h64v-64h-64zM192 0v64h64v192h-64v64h-192v64h256v64h64v-64h128v-64h-128v-320h-128z" />
    <glyph glyph-name="uni30AB" unicode="&#x30ab;" 
d="M0 0v64h64v-64h-64zM256 0v64h64v-64h-64zM64 64v256h-64v64h64v64h64v-64h256v-320h-64v256h-192v-256h-64z" />
    <glyph glyph-name="uni30AC" unicode="&#x30ac;" horiz-adv-x="672" 
d="M0 0v64h64v-64h-64zM256 0v64h64v-64h-64zM64 64v256h-64v64h64v64h64v-64h256v-320h-64v256h-192v-256h-64zM384 448v128h64v-128h-64zM512 448v128h64v-128h-64z" />
    <glyph glyph-name="uni30AD" unicode="&#x30ad;" 
d="M192 0v192h-192v64h192v64h-192v64h192v64h64v-64h128v-64h-128v-64h128v-64h-128v-192h-64z" />
    <glyph glyph-name="uni30AE" unicode="&#x30ae;" horiz-adv-x="672" 
d="M192 0v192h-192v64h192v64h-192v64h192v64h64v-64h128v-64h-128v-64h128v-64h-128v-192h-64zM384 448v128h64v-128h-64zM512 448v128h64v-128h-64z" />
    <glyph glyph-name="uni30AF" unicode="&#x30af;" 
d="M128 0v64h128v-64h-128zM256 64v64h64v-64h-64zM0 256v64h64v-64h-64zM320 128v256h-192v-64h-64v128h320v-320h-64z" />
    <glyph glyph-name="uni30B0" unicode="&#x30b0;" horiz-adv-x="672" 
d="M128 0v64h128v-64h-128zM256 64v64h64v-64h-64zM0 256v64h64v-64h-64zM320 128v256h-192v-64h-64v128h320v-320h-64zM384 448v128h64v-128h-64zM512 448v128h64v-128h-64z" />
    <glyph glyph-name="uni30B1" unicode="&#x30b1;" 
d="M64 0v64h128v-64h-128zM192 64v256h-128v-128h-64v256h64v-64h384v-64h-192v-256h-64z" />
    <glyph glyph-name="uni30B2" unicode="&#x30b2;" horiz-adv-x="672" 
d="M64 0v64h128v-64h-128zM192 64v256h-128v-128h-64v256h64v-64h320v-64h-128v-256h-64zM384 448v128h64v-128h-64zM512 448v128h64v-128h-64z" />
    <glyph glyph-name="uni30B3" unicode="&#x30b3;" 
d="M0 0v64h320v320h-320v64h384v-448h-384z" />
    <glyph glyph-name="uni30B4" unicode="&#x30b4;" horiz-adv-x="672" 
d="M0 0v64h320v320h-320v64h384v-448h-384zM384 448v128h64v-128h-64zM512 448v128h64v-128h-64z" />
    <glyph glyph-name="uni30B5" unicode="&#x30b5;" 
d="M128 0v64h192v-64h-192zM320 64v256h-192v-128h-64v128h-64v64h64v64h64v-64h192v64h64v-64h64v-64h-64v-256h-64z" />
    <glyph glyph-name="uni30B6" unicode="&#x30b6;" horiz-adv-x="672" 
d="M128 0v64h192v-64h-192zM320 64v256h-192v-128h-64v128h-64v64h64v64h64v-64h192v64h64v-64h64v-64h-64v-256h-64zM384 448v128h64v-128h-64zM512 448v128h64v-128h-64z" />
    <glyph glyph-name="uni30B7" unicode="&#x30b7;" 
d="M0 0v64h256v-64h-256zM256 64v128h64v-128h-64zM0 256v64h128v-64h-128zM320 192v192h64v-192h-64zM0 384v64h128v-64h-128z" />
    <glyph glyph-name="uni30B8" unicode="&#x30b8;" horiz-adv-x="672" 
d="M0 0v64h256v-64h-256zM256 64v128h64v-128h-64zM0 256v64h128v-64h-128zM320 192v192h64v-192h-64zM0 384v64h128v-64h-128zM384 448v128h64v-128h-64zM512 448v128h64v-128h-64z" />
    <glyph glyph-name="uni30B9" unicode="&#x30b9;" 
d="M0 0v64h64v-64h-64zM384 0v64h64v-64h-64zM64 64v64h64v-64h-64zM320 64v64h64v-64h-64zM128 128v64h64v-64h-64zM256 128v64h64v-64h-64zM192 192v64h64v-64h-64zM256 256v64h64v-64h-64zM320 320v64h-320v64h384v-128h-64z" />
    <glyph glyph-name="uni30BA" unicode="&#x30ba;" horiz-adv-x="672" 
d="M0 0v64h64v-64h-64zM384 0v64h64v-64h-64zM64 64v64h64v-64h-64zM320 64v64h64v-64h-64zM128 128v64h64v-64h-64zM256 128v64h64v-64h-64zM192 192v64h64v-64h-64zM256 256v64h64v-64h-64zM320 320v64h-320v64h384v-128h-64zM384 448v128h64v-128h-64zM512 448v128h64
v-128h-64z" />
    <glyph glyph-name="uni30BB" unicode="&#x30bb;" 
d="M128 0v64h320v-64h-320zM320 192v64h64v-64h-64zM64 64v256h-64v64h64v64h64v-64h320v-128h-64v64h-256v-256h-64z" />
    <glyph glyph-name="uni30BC" unicode="&#x30bc;" horiz-adv-x="672" 
d="M128 0v64h320v-64h-320zM320 192v64h64v-64h-64zM64 64v256h-64v64h64v64h64v-64h320v-128h-64v64h-256v-256h-64zM384 448v128h64v-128h-64zM512 448v128h64v-128h-64z" />
    <glyph glyph-name="uni30BD" unicode="&#x30bd;" 
d="M64 0v64h192v-64h-192zM256 64v64h64v-64h-64zM320 128v64h64v-64h-64zM64 256v64h64v-64h-64zM0 320v128h64v-128h-64zM384 192v256h64v-256h-64z" />
    <glyph glyph-name="uni30BE" unicode="&#x30be;" horiz-adv-x="736" 
d="M64 0v64h192v-64h-192zM256 64v64h64v-64h-64zM320 128v64h64v-64h-64zM64 256v64h64v-64h-64zM0 320v128h64v-128h-64zM384 192v256h64v-256h-64zM448 448v128h64v-128h-64zM576 448v128h64v-128h-64z" />
    <glyph glyph-name="uni30BF" unicode="&#x30bf;" horiz-adv-x="480" 
d="M64 0v64h192v-64h-192zM0 192v64h64v-64h-64zM256 320v64h-128v-64h128zM256 64v192h-192v192h256v-384h-64z" />
    <glyph glyph-name="uni30C0" unicode="&#x30c0;" horiz-adv-x="672" 
d="M64 0v64h192v-64h-192zM0 192v64h64v-64h-64zM256 320v64h-128v-64h128zM256 64v192h-192v192h256v-384h-64zM384 448v128h64v-128h-64zM512 448v128h64v-128h-64z" />
    <glyph glyph-name="uni30C1" unicode="&#x30c1;" 
d="M128 0v64h64v128h-192v64h192v64h-192v64h192v64h192v-64h-128v-128h192v-64h-192v-192h-128z" />
    <glyph glyph-name="uni30C2" unicode="&#x30c2;" horiz-adv-x="672" 
d="M128 0v64h64v128h-192v64h192v64h-192v64h192v64h192v-64h-128v-128h192v-64h-192v-192h-128zM384 448v128h64v-128h-64zM512 448v128h64v-128h-64z" />
    <glyph glyph-name="uni30C3" unicode="&#x30c3;" 
d="M128 0v64h192v-64h-192zM64 192v128h64v-128h-64zM192 192v128h64v-128h-64zM320 64v256h64v-256h-64z" />
    <glyph glyph-name="uni30C4" unicode="&#x30c4;" horiz-adv-x="480" 
d="M64 0v64h192v-64h-192zM256 64v64h64v-64h-64zM0 256v192h64v-192h-64zM128 256v192h64v-192h-64zM320 128v320h64v-320h-64z" />
    <glyph glyph-name="uni30C5" unicode="&#x30c5;" horiz-adv-x="672" 
d="M64 0v64h192v-64h-192zM256 64v64h64v-64h-64zM0 256v192h64v-192h-64zM128 256v192h64v-192h-64zM320 128v320h64v-320h-64zM384 448v128h64v-128h-64zM512 448v128h64v-128h-64z" />
    <glyph glyph-name="uni30C6" unicode="&#x30c6;" 
d="M64 0v64h128v-64h-128zM192 64v192h-192v64h448v-64h-192v-192h-64zM64 384v64h320v-64h-320z" />
    <glyph glyph-name="uni30C7" unicode="&#x30c7;" horiz-adv-x="672" 
d="M64 0v64h128v-64h-128zM192 64v192h-192v64h448v-64h-192v-192h-64zM64 384v64h320v-64h-320zM384 448v128h64v-128h-64zM512 448v128h64v-128h-64z" />
    <glyph glyph-name="uni30C8" unicode="&#x30c8;" horiz-adv-x="480" 
d="M256 128v64h64v-64h-64zM0 0v448h64v-192h192v-64h-192v-192h-64z" />
    <glyph glyph-name="uni30C9" unicode="&#x30c9;" horiz-adv-x="608" 
d="M256 128v64h64v-64h-64zM0 0v448h64v-192h192v-64h-192v-192h-64zM320 448v128h64v-128h-64zM448 448v128h64v-128h-64z" />
    <glyph glyph-name="uni30CA" unicode="&#x30ca;" 
d="M64 0v64h192v-64h-192zM256 64v192h-256v64h256v128h64v-128h128v-64h-128v-192h-64z" />
    <glyph glyph-name="uni30CB" unicode="&#x30cb;" 
d="M0 0v64h384v-64h-384zM64 384v64h256v-64h-256z" />
    <glyph glyph-name="uni30CC" unicode="&#x30cc;" 
d="M0 0v64h128v-64h-128zM320 0v64h128v-64h-128zM128 64v64h64v-64h-64zM256 64v64h64v-64h-64zM192 128v64h64v-64h-64zM64 192v64h128v-64h-128zM256 192v64h64v-64h-64zM320 256v128h-320v64h384v-192h-64z" />
    <glyph glyph-name="uni30CD" unicode="&#x30cd;" 
d="M0 64v64h128v-64h-128zM384 64v64h64v-64h-64zM192 0v128h-64v64h128v64h64v-64h64v-64h-128v-128h-64zM320 256v64h-320v64h192v64h64v-64h192v-64h-64v-64h-64z" />
    <glyph glyph-name="uni30CE" unicode="&#x30ce;" 
d="M64 0v64h128v-64h-128zM192 64v64h64v-64h-64zM256 128v128h64v-128h-64zM320 256v192h64v-192h-64z" />
    <glyph glyph-name="uni30CF" unicode="&#x30cf;" horiz-adv-x="480" 
d="M320 0v256h64v-256h-64zM0 0v320h64v-320h-64zM256 256v128h64v-128h-64zM192 384v64h64v-64h-64z" />
    <glyph glyph-name="uni30D0" unicode="&#x30d0;" horiz-adv-x="672" 
d="M320 0v256h64v-256h-64zM0 0v320h64v-320h-64zM256 256v128h64v-128h-64zM192 384v64h64v-64h-64zM384 448v128h64v-128h-64zM512 448v128h64v-128h-64z" />
    <glyph glyph-name="uni30D1" unicode="&#x30d1;" horiz-adv-x="672" 
d="M320 0v256h64v-256h-64zM0 0v320h64v-320h-64zM256 256v128h64v-128h-64zM192 384v64h64v-64h-64zM448 448v64h64v-64h-64zM384 512v64h64v-64h-64zM512 512v64h64v-64h-64zM448 576v64h64v-64h-64z" />
    <glyph glyph-name="uni30D2" unicode="&#x30d2;" horiz-adv-x="480" 
d="M64 0v64h320v-64h-320zM0 64v384h64v-128h320v-64h-320v-192h-64z" />
    <glyph glyph-name="uni30D3" unicode="&#x30d3;" horiz-adv-x="672" 
d="M64 0v64h320v-64h-320zM0 64v384h64v-128h320v-64h-320v-192h-64zM384 448v128h64v-128h-64zM512 448v128h64v-128h-64z" />
    <glyph glyph-name="uni30D4" unicode="&#x30d4;" horiz-adv-x="672" 
d="M64 0v64h320v-64h-320zM0 64v384h64v-128h320v-64h-320v-192h-64zM448 448v64h64v-64h-64zM384 512v64h64v-64h-64zM512 512v64h64v-64h-64zM448 576v64h64v-64h-64z" />
    <glyph glyph-name="uni30D5" unicode="&#x30d5;" horiz-adv-x="480" 
d="M64 0v64h192v-64h-192zM256 64v64h64v-64h-64zM320 128v256h-320v64h384v-320h-64z" />
    <glyph glyph-name="uni30D6" unicode="&#x30d6;" horiz-adv-x="672" 
d="M64 0v64h192v-64h-192zM256 64v64h64v-64h-64zM320 128v256h-320v64h384v-320h-64zM384 448v128h64v-128h-64zM512 448v128h64v-128h-64z" />
    <glyph glyph-name="uni30D7" unicode="&#x30d7;" horiz-adv-x="672" 
d="M64 0v64h192v-64h-192zM256 64v64h64v-64h-64zM320 128v256h-320v64h384v-320h-64zM448 448v64h64v-64h-64zM384 512v64h64v-64h-64zM512 512v64h64v-64h-64zM448 576v64h64v-64h-64z" />
    <glyph glyph-name="uni30D8" unicode="&#x30d8;" 
d="M384 64v64h64v-64h-64zM320 128v64h64v-64h-64zM0 128v128h64v-128h-64zM256 192v64h64v-64h-64zM64 256v64h64v-64h-64zM192 256v64h64v-64h-64zM128 320v64h64v-64h-64z" />
    <glyph glyph-name="uni30D9" unicode="&#x30d9;" horiz-adv-x="672" 
d="M384 64v64h64v-64h-64zM320 128v64h64v-64h-64zM0 128v128h64v-128h-64zM256 192v64h64v-64h-64zM64 256v64h64v-64h-64zM192 256v64h64v-64h-64zM128 320v64h64v-64h-64zM384 448v128h64v-128h-64zM512 448v128h64v-128h-64z" />
    <glyph glyph-name="uni30DA" unicode="&#x30da;" horiz-adv-x="672" 
d="M384 64v64h64v-64h-64zM320 128v64h64v-64h-64zM0 128v128h64v-128h-64zM256 192v64h64v-64h-64zM64 256v64h64v-64h-64zM192 256v64h64v-64h-64zM128 320v64h64v-64h-64zM448 448v64h64v-64h-64zM384 512v64h64v-64h-64zM512 512v64h64v-64h-64zM448 576v64h64v-64h-64z
" />
    <glyph glyph-name="uni30DB" unicode="&#x30db;" 
d="M0 0v192h64v-192h-64zM384 0v192h64v-192h-64zM192 0v320h-192v64h192v64h64v-64h192v-64h-192v-320h-64z" />
    <glyph glyph-name="uni30DC" unicode="&#x30dc;" horiz-adv-x="672" 
d="M0 0v192h64v-192h-64zM384 0v192h64v-192h-64zM192 0v320h-192v64h192v64h64v-64h192v-64h-192v-320h-64zM384 448v128h64v-128h-64zM512 448v128h64v-128h-64z" />
    <glyph glyph-name="uni30DD" unicode="&#x30dd;" horiz-adv-x="672" 
d="M0 0v192h64v-192h-64zM384 0v192h64v-192h-64zM192 0v320h-192v64h192v64h64v-64h192v-64h-192v-320h-64zM448 448v64h64v-64h-64zM384 512v64h64v-64h-64zM512 512v64h64v-64h-64zM448 576v64h64v-64h-64z" />
    <glyph glyph-name="uni30DE" unicode="&#x30de;" 
d="M192 0v64h64v-64h-64zM128 64v64h64v-64h-64zM64 128v64h64v-64h-64zM192 128v64h64v-64h-64zM256 192v64h64v-64h-64zM320 256v128h-320v64h384v-192h-64z" />
    <glyph glyph-name="uni30DF" unicode="&#x30df;" 
d="M192 0v64h256v-64h-256zM0 64v64h192v-64h-192zM192 192v64h192v-64h-192zM64 256v64h128v-64h-128zM256 320v64h192v-64h-192zM0 384v64h256v-64h-256z" />
    <glyph glyph-name="uni30E0" unicode="&#x30e0;" 
d="M64 0v64h320v64h64v-128h-384zM0 64v128h64v-128h-64zM320 128v64h64v-64h-64zM64 192v64h64v-64h-64zM128 256v64h64v-64h-64zM192 320v64h64v-64h-64zM256 384v64h64v-64h-64z" />
    <glyph glyph-name="uni30E1" unicode="&#x30e1;" 
d="M0 0v64h128v-64h-128zM320 0v64h64v-64h-64zM128 64v64h64v-64h-64zM256 64v64h64v-64h-64zM192 128v64h64v-64h-64zM128 192v64h64v-64h-64zM64 256v64h64v-64h-64zM256 192v128h64v-128h-64zM320 320v128h64v-128h-64z" />
    <glyph glyph-name="uni30E2" unicode="&#x30e2;" 
d="M192 0v64h192v-64h-192zM128 64v192h-128v64h128v64h-128v64h384v-64h-192v-64h192v-64h-192v-192h-64z" />
    <glyph glyph-name="uni30E3" unicode="&#x30e3;" 
d="M256 64v64h64v-64h-64zM128 0v192h-64v64h64v64h64v-64h192v-128h-64v64h-128v-192h-64z" />
    <glyph glyph-name="uni30E4" unicode="&#x30e4;" 
d="M256 128v64h64v-64h-64zM128 0v320h-128v64h128v64h64v-64h192v-192h-64v128h-128v-320h-64z" />
    <glyph glyph-name="uni30E5" unicode="&#x30e5;" 
d="M64 0v64h192v192h-128v64h192v-256h64v-64h-320z" />
    <glyph glyph-name="uni30E6" unicode="&#x30e6;" 
d="M0 0v64h256v320h-192v64h256v-384h128v-64h-448z" />
    <glyph glyph-name="uni30E7" unicode="&#x30e7;" 
d="M64 0v64h256v64h-256v64h256v64h-256v64h320v-320h-320z" />
    <glyph glyph-name="uni30E8" unicode="&#x30e8;" 
d="M0 0v64h320v128h-320v64h320v128h-320v64h384v-448h-384z" />
    <glyph glyph-name="uni30E9" unicode="&#x30e9;" 
d="M64 0v64h192v-64h-192zM256 64v64h64v-64h-64zM320 128v128h-320v64h384v-192h-64zM0 384v64h384v-64h-384z" />
    <glyph glyph-name="uni30EA" unicode="&#x30ea;" 
d="M128 0v64h128v-64h-128zM256 64v64h64v-64h-64zM64 192v256h64v-256h-64zM320 128v320h64v-320h-64z" />
    <glyph glyph-name="uni30EB" unicode="&#x30eb;" 
d="M0 0v64h64v-64h-64zM384 64v128h64v-128h-64zM64 64v320h64v-320h-64zM192 0v448h64v-384h128v-64h-192z" />
    <glyph glyph-name="uni30EC" unicode="&#x30ec;" 
d="M256 64v64h64v-64h-64zM320 128v128h64v-128h-64zM0 0v448h64v-384h192v-64h-256z" />
    <glyph glyph-name="uni30ED" unicode="&#x30ed;" 
d="M320 64v320h-256v-320h256zM0 0v448h384v-448h-384z" />
    <glyph glyph-name="uni30EE" unicode="&#x30ee;" 
d="M128 0v64h128v-64h-128zM256 64v192h-128v-64h-64v128h256v-256h-64z" />
    <glyph glyph-name="uni30EF" unicode="&#x30ef;" 
d="M128 0v64h192v-64h-192zM320 64v320h-256v-128h-64v192h384v-384h-64z" />
    <glyph glyph-name="uni30F2" unicode="&#x30f2;" 
d="M64 0v64h192v-64h-192zM256 64v64h64v-64h-64zM320 128v128h-320v64h320v64h-320v64h384v-320h-64z" />
    <glyph glyph-name="uni30F3" unicode="&#x30f3;" 
d="M0 0v64h256v-64h-256zM256 64v128h64v-128h-64zM320 192v128h64v-128h-64zM0 384v64h128v-64h-128z" />
    <glyph glyph-name="uni30F4" unicode="&#x30f4;" horiz-adv-x="480" 
d="M128 0v64h192v-64h-192zM320 64v64h64v-64h-64zM384 128v192h-320v-128h-64v192h192v64h64v-64h192v-256h-64zM384 448v128h64v-128h-64zM512 448v128h64v-128h-64z" />
    <glyph glyph-name="uni30F5" unicode="&#x30f5;" horiz-adv-x="416" 
d="M64 0v64h64v-64h-64zM256 0v192h-64v-128h-64v128h-64v64h64v64h64v-64h128v-256h-64z" />
    <glyph glyph-name="uni30F6" unicode="&#x30f6;" horiz-adv-x="480" 
d="M192 0v64h64v-64h-64zM256 64v128h-128v-64h-64v192h64v-64h256v-64h-64v-128h-64z" />
    <glyph glyph-name="uni30F7" unicode="&#x30f7;" horiz-adv-x="672" 
d="M128 0v64h192v-64h-192zM320 64v320h-256v-128h-64v192h384v-384h-64zM384 448v128h64v-128h-64zM512 448v128h64v-128h-64z" />
    <glyph glyph-name="uni30FA" unicode="&#x30fa;" horiz-adv-x="672" 
d="M64 0v64h192v-64h-192zM256 64v64h64v-64h-64zM320 128v128h-320v64h320v64h-320v64h384v-320h-64zM384 448v128h64v-128h-64zM512 448v128h64v-128h-64z" />
    <glyph glyph-name="uni30FB" unicode="&#x30fb;" horiz-adv-x="480" 
d="M128 192v128h128v-128h-128z" />
    <glyph glyph-name="uni30FC" unicode="&#x30fc;" horiz-adv-x="480" 
d="M0 192v64h384v-64h-384z" />
  </font>
</defs>
</svg>
